<svg width="250" height="250" viewBox="0 0 250 250" fill="none" xmlns="http://www.w3.org/2000/svg">
<path d="M39 164.28L50.6742 158.989L65.2512 155.65L53.556 160.92L39 164.28Z" fill="#E8E8EB"/>
<path d="M39 164.28L50.6742 158.989L65.2512 155.65L53.556 160.92L39 164.28Z" stroke="#3D3D40" stroke-linecap="round" stroke-linejoin="round"/>
<path d="M65.3984 155.631L53.7031 160.922L65.3984 155.631Z" fill="white"/>
<path d="M65.3984 155.631L53.7031 160.922L65.3984 155.631Z" stroke="#3D3D40" stroke-linecap="round" stroke-linejoin="round"/>
<path d="M53.5547 160.922L65.2499 155.652L65.271 155.631L53.5757 160.922H53.5547Z" fill="white"/>
<path d="M53.5547 160.922L65.2499 155.652L65.271 155.631L53.5757 160.922H53.5547Z" stroke="#3D3D40" stroke-linecap="round" stroke-linejoin="round"/>
<path d="M53.5781 160.92L65.2734 155.65L53.5781 160.941" fill="white"/>
<path d="M53.5781 160.92L65.2734 155.65L53.5781 160.941" stroke="#3D3D40" stroke-linecap="round" stroke-linejoin="round"/>
<path d="M65.3984 155.631L53.7031 160.922L65.3984 155.631Z" stroke="#3D3D40" stroke-linecap="round" stroke-linejoin="round"/>
<path d="M65.3984 155.631L53.7031 160.922L65.3984 155.631Z" stroke="#3D3D40" stroke-linecap="round" stroke-linejoin="round"/>
<path d="M99.0777 209.129L110.773 203.838L107.534 219.186L95.8594 224.477L99.0777 209.129Z" fill="#D1D1D4"/>
<path d="M99.0777 209.129L110.773 203.838L107.534 219.186L95.8594 224.477L99.0777 209.129Z" stroke="#3D3D40" stroke-linecap="round" stroke-linejoin="round"/>
<path d="M99.286 208.855L110.981 203.564C110.928 203.591 110.882 203.63 110.845 203.677C110.809 203.724 110.783 203.779 110.771 203.837L99.0547 209.128C99.0599 209.07 99.08 209.015 99.1132 208.967C99.1464 208.919 99.1915 208.881 99.244 208.855" fill="white"/>
<path d="M99.286 208.855L110.981 203.564C110.928 203.591 110.882 203.63 110.845 203.677C110.809 203.724 110.783 203.779 110.771 203.837L99.0547 209.128C99.0636 209.066 99.09 209.007 99.1309 208.959C99.1719 208.91 99.2256 208.875 99.286 208.855Z" stroke="#3D3D40" stroke-linecap="round" stroke-linejoin="round"/>
<path d="M99.2848 208.855L110.98 203.564L110.854 203.669L99.1797 208.96C99.2034 208.916 99.24 208.879 99.2848 208.855" fill="white"/>
<path d="M99.2848 208.855L110.98 203.564L110.854 203.669L99.1797 208.96C99.2034 208.916 99.24 208.879 99.2848 208.855" stroke="#3D3D40" stroke-linecap="round" stroke-linejoin="round"/>
<path d="M99.1809 208.961L110.855 203.67L99.0547 208.982" fill="white"/>
<path d="M99.1809 208.961L110.855 203.67L99.0547 208.982" stroke="#3D3D40" stroke-linecap="round" stroke-linejoin="round"/>
<path d="M99.0547 208.981L110.834 203.795L99.0547 209.023" fill="white"/>
<path d="M99.0547 208.981L110.834 203.795L99.0547 209.023" stroke="#3D3D40" stroke-linecap="round" stroke-linejoin="round"/>
<path d="M99.0547 209.023L110.75 203.732L99.0547 209.065" fill="white"/>
<path d="M99.0547 209.023L110.75 203.732L99.0547 209.065" stroke="#3D3D40" stroke-linecap="round" stroke-linejoin="round"/>
<path d="M99.0547 209.065L110.729 203.774L99.0547 209.086" fill="white"/>
<path d="M99.0547 209.065L110.729 203.774L99.0547 209.086" stroke="#3D3D40" stroke-linecap="round" stroke-linejoin="round"/>
<path d="M99.0547 209.085L110.75 203.815L99.0547 209.127" fill="white"/>
<path d="M99.0547 209.085L110.75 203.815L99.0547 209.127" stroke="#3D3D40" stroke-linecap="round" stroke-linejoin="round"/>
<path d="M99.286 208.855L110.981 203.564C110.928 203.591 110.882 203.63 110.845 203.677C110.809 203.724 110.783 203.779 110.771 203.837L99.0547 209.128C99.0636 209.066 99.09 209.007 99.1309 208.959C99.1719 208.91 99.2256 208.875 99.286 208.855Z" stroke="#3D3D40" stroke-linecap="round" stroke-linejoin="round"/>
<path d="M99.286 208.855L110.981 203.564C110.928 203.591 110.882 203.63 110.845 203.677C110.809 203.724 110.783 203.779 110.771 203.837L99.0547 209.128C99.0636 209.066 99.09 209.007 99.1309 208.959C99.1719 208.91 99.2256 208.875 99.286 208.855Z" stroke="#3D3D40" stroke-linecap="round" stroke-linejoin="round"/>
<path d="M56.7969 130.414L68.4711 125.123L81.6808 133.794L69.9856 139.085L56.7969 130.414Z" fill="white"/>
<path d="M56.7969 130.414L68.4711 125.123L81.6808 133.794L69.9856 139.085L56.7969 130.414Z" stroke="#3D3D40" stroke-linecap="round" stroke-linejoin="round"/>
<path d="M109.086 188.048L107.761 188.573L107.403 188.699L106.751 188.908L106.33 189.034L105.615 189.202H105.258L103.575 189.475H103.259C102.764 189.542 102.266 189.577 101.766 189.58H99.8518H98.6949H98.4215L97.0752 189.349H96.7597L95.6449 189.055H95.3504C94.8876 188.929 94.4459 188.783 94.0042 188.615L93.7307 188.51L92.3424 187.922L90.7228 187.061H90.5335L89.7973 186.599L89.5659 186.452L88.6403 185.801C88.2407 185.507 87.8621 185.192 87.4624 184.856C87.402 184.789 87.331 184.732 87.2521 184.688C86.8735 184.352 86.4948 183.995 86.1372 183.617L85.5904 183.072C85.1907 182.652 84.8121 182.211 84.4545 181.77L84.2862 181.581L83.3186 180.258L83.1293 179.985C82.8348 179.544 82.5403 179.061 82.2669 178.599L82.1406 178.369C81.8462 177.865 81.5937 177.361 81.3413 176.836C81.1099 176.353 80.8996 175.849 80.7103 175.345L80.5841 175.051C80.3948 174.568 80.2265 174.064 80.0793 173.56L79.9531 173.141L79.7637 172.448L79.6375 171.965C79.6375 171.734 79.5324 171.503 79.4903 171.272C79.4483 171.041 79.4903 170.999 79.4903 170.873C79.3852 170.264 79.28 169.655 79.2169 169.025C79.2169 169.025 79.2169 168.815 79.2169 168.71C79.1504 168.167 79.1153 167.62 79.1117 167.073C79.1117 167.073 79.1117 166.905 79.1117 166.821C79.1117 166.338 79.1117 165.834 79.1117 165.351C79.1221 165.246 79.1221 165.141 79.1117 165.036C79.1117 164.532 79.1117 164.028 79.2379 163.524C79.2479 163.434 79.2479 163.342 79.2379 163.251C79.2379 162.831 79.3641 162.412 79.4482 161.992V161.698C79.4482 161.215 79.6586 160.753 79.7848 160.27V159.997C79.911 159.535 80.0582 159.094 80.2265 158.653C80.2238 158.604 80.2238 158.555 80.2265 158.506C80.4113 157.999 80.622 157.501 80.8576 157.016C80.9015 156.936 80.9367 156.851 80.9627 156.764C81.2362 156.218 81.5096 155.693 81.8041 155.189L81.9724 154.916L82.4141 154.223L82.5824 153.95C82.8138 153.614 83.0241 153.32 83.2765 153.005C83.661 152.492 84.0754 152.001 84.5176 151.536C85.8123 150.174 87.2922 149.001 88.9138 148.05C89.4593 147.734 90.0211 147.447 90.5966 147.189L78.9014 152.48C76.6155 153.518 74.5569 154.994 72.8434 156.827C72.3953 157.292 71.9739 157.783 71.5813 158.296V158.296C71.3499 158.611 71.1185 158.905 70.9082 159.22L70.7189 159.514C70.5716 159.724 70.4244 159.976 70.2772 160.207C70.2732 160.256 70.2732 160.305 70.2772 160.354V160.459C69.9678 160.975 69.687 161.508 69.4358 162.055V162.223C69.2254 162.705 69.0151 163.188 68.8258 163.713L68.3841 165.078C68.3841 165.078 68.3841 165.078 68.3841 165.246C68.2579 165.708 68.1527 166.191 68.0475 166.674C68.0475 166.674 68.0475 166.821 68.0475 166.884C68.0475 167.304 67.9003 167.703 67.8582 168.143C67.8582 168.143 67.8582 168.269 67.8582 168.332C67.8582 168.836 67.8582 169.319 67.7109 169.823V170.201C67.7109 170.684 67.7109 171.188 67.7109 171.671V171.923C67.7109 172.469 67.7109 173.015 67.8161 173.539C67.8057 173.609 67.8057 173.68 67.8161 173.749C67.8062 173.791 67.8062 173.834 67.8161 173.875C67.8161 174.505 67.9633 175.114 68.0685 175.723C68.0783 175.764 68.0783 175.808 68.0685 175.849V176.122C68.0685 176.353 68.1737 176.584 68.2157 176.815L68.342 177.298L68.5313 177.991C68.5408 178.095 68.5408 178.201 68.5313 178.306C68.6785 178.809 68.8679 179.313 69.0361 179.796L69.1623 180.09C69.3727 180.594 69.583 181.098 69.8144 181.581C70.0668 182.106 70.3403 182.61 70.6137 183.114L70.7399 183.345C71.0134 183.806 71.3078 184.289 71.6233 184.73L71.7917 184.982C72.0974 185.44 72.4274 185.882 72.7803 186.305C72.8243 186.378 72.8735 186.449 72.9275 186.515C73.3061 186.956 73.6637 187.397 74.0634 187.796L74.5051 188.279H74.6103C74.9889 188.657 75.3465 188.992 75.7462 189.328L75.9565 189.517C76.3351 189.853 76.7347 190.168 77.1344 190.462L78.0599 191.134L78.2913 191.26L79.0276 191.722H79.1327L80.7524 192.583C81.1941 192.793 81.6569 192.982 82.1406 193.171H82.2879H82.3931L83.7393 193.612H83.8444H84.0548L85.1696 193.906H85.3589H85.4642L86.8103 194.136H87.0838C87.4624 194.136 87.8621 194.136 88.2407 194.262H90.1759C90.6732 194.294 91.172 194.294 91.6693 194.262H91.9638C92.5318 194.262 93.0787 194.095 93.6256 193.969H93.9411L94.6352 193.801L95.0559 193.675L95.708 193.465H95.8973H96.0656C96.5073 193.297 96.9701 193.129 97.4118 192.919L109.086 188.048Z" fill="#D1D1D4"/>
<path d="M109.086 188.048L107.761 188.573L107.403 188.699L106.751 188.908L106.33 189.034L105.615 189.202H105.258L103.575 189.475H103.259C102.764 189.542 102.266 189.577 101.766 189.58H99.8518H98.6949H98.4215L97.0752 189.349H96.7597L95.6449 189.055H95.3504C94.8876 188.929 94.4459 188.783 94.0042 188.615L93.7307 188.51L92.3424 187.922L90.7228 187.061H90.5335L89.7973 186.599L89.5659 186.452L88.6403 185.801C88.2407 185.507 87.8621 185.192 87.4624 184.856C87.402 184.789 87.331 184.732 87.2521 184.688C86.8735 184.352 86.4948 183.995 86.1372 183.617L85.5904 183.072C85.1907 182.652 84.8121 182.211 84.4545 181.77L84.2862 181.581L83.3186 180.258L83.1293 179.985C82.8348 179.544 82.5403 179.061 82.2669 178.599L82.1406 178.369C81.8462 177.865 81.5937 177.361 81.3413 176.836C81.1099 176.353 80.8996 175.849 80.7103 175.345L80.5841 175.051C80.3948 174.568 80.2265 174.064 80.0793 173.56L79.9531 173.141L79.7637 172.448L79.6375 171.965C79.6375 171.734 79.5324 171.503 79.4903 171.272C79.4483 171.041 79.4903 170.999 79.4903 170.873C79.3852 170.264 79.28 169.655 79.2169 169.025C79.2169 169.025 79.2169 168.815 79.2169 168.71C79.1504 168.167 79.1153 167.62 79.1117 167.073C79.1117 167.073 79.1117 166.905 79.1117 166.821C79.1117 166.338 79.1117 165.834 79.1117 165.351C79.1221 165.246 79.1221 165.141 79.1117 165.036C79.1117 164.532 79.1117 164.028 79.2379 163.524C79.2479 163.434 79.2479 163.342 79.2379 163.251C79.2379 162.831 79.3641 162.412 79.4482 161.992V161.698C79.4482 161.215 79.6586 160.753 79.7848 160.27V159.997C79.911 159.535 80.0582 159.094 80.2265 158.653C80.2238 158.604 80.2238 158.555 80.2265 158.506C80.4113 157.999 80.622 157.501 80.8576 157.016C80.9015 156.936 80.9367 156.851 80.9627 156.764C81.2362 156.218 81.5096 155.693 81.8041 155.189L81.9724 154.916L82.4141 154.223L82.5824 153.95C82.8138 153.614 83.0241 153.32 83.2765 153.005C83.661 152.492 84.0754 152.001 84.5176 151.536C85.8123 150.174 87.2922 149.001 88.9138 148.05C89.4593 147.734 90.0211 147.447 90.5966 147.189L78.9014 152.48C76.6155 153.518 74.5569 154.994 72.8434 156.827C72.3953 157.292 71.9739 157.783 71.5813 158.296V158.296C71.3499 158.611 71.1185 158.905 70.9082 159.22L70.7189 159.514C70.5716 159.724 70.4244 159.976 70.2772 160.207C70.2732 160.256 70.2732 160.305 70.2772 160.354V160.459C69.9678 160.975 69.687 161.508 69.4358 162.055V162.223C69.2254 162.705 69.0151 163.188 68.8258 163.713L68.3841 165.078C68.3841 165.078 68.3841 165.078 68.3841 165.246C68.2579 165.708 68.1527 166.191 68.0475 166.674C68.0475 166.674 68.0475 166.821 68.0475 166.884C68.0475 167.304 67.9003 167.703 67.8582 168.143C67.8582 168.143 67.8582 168.269 67.8582 168.332C67.8582 168.836 67.8582 169.319 67.7109 169.823V170.201C67.7109 170.684 67.7109 171.188 67.7109 171.671V171.923C67.7109 172.469 67.7109 173.015 67.8161 173.539C67.8057 173.609 67.8057 173.68 67.8161 173.749C67.8062 173.791 67.8062 173.834 67.8161 173.875C67.8161 174.505 67.9633 175.114 68.0685 175.723C68.0783 175.764 68.0783 175.808 68.0685 175.849V176.122C68.0685 176.353 68.1737 176.584 68.2157 176.815L68.342 177.298L68.5313 177.991C68.5408 178.095 68.5408 178.201 68.5313 178.306C68.6785 178.809 68.8679 179.313 69.0361 179.796L69.1623 180.09C69.3727 180.594 69.583 181.098 69.8144 181.581C70.0668 182.106 70.3403 182.61 70.6137 183.114L70.7399 183.345C71.0134 183.806 71.3078 184.289 71.6233 184.73L71.7917 184.982C72.0974 185.44 72.4274 185.882 72.7803 186.305C72.8243 186.378 72.8735 186.449 72.9275 186.515C73.3061 186.956 73.6637 187.397 74.0634 187.796L74.5051 188.279H74.6103C74.9889 188.657 75.3465 188.992 75.7462 189.328L75.9565 189.517C76.3351 189.853 76.7347 190.168 77.1344 190.462L78.0599 191.134L78.2913 191.26L79.0276 191.722H79.1327L80.7524 192.583C81.1941 192.793 81.6569 192.982 82.1406 193.171H82.2879H82.3931L83.7393 193.612H83.8444H84.0548L85.1696 193.906H85.3589H85.4642L86.8103 194.136H87.0838C87.4624 194.136 87.8621 194.136 88.2407 194.262H90.1759C90.6732 194.294 91.172 194.294 91.6693 194.262H91.9638C92.5318 194.262 93.0787 194.095 93.6256 193.969H93.9411L94.6352 193.801L95.0559 193.675L95.708 193.465H95.8973H96.0656C96.5073 193.297 96.9701 193.129 97.4118 192.919L109.086 188.048Z" stroke="#3D3D40" stroke-linecap="round" stroke-linejoin="round"/>
<path d="M131.549 186.559C131.531 186.497 131.531 186.432 131.549 186.37C131.539 186.301 131.539 186.23 131.549 186.16L119.875 191.451V191.577L128.057 205.539L139.732 200.248L131.549 186.559Z" fill="#D1D1D4"/>
<path d="M131.549 186.559C131.531 186.497 131.531 186.432 131.549 186.37C131.539 186.301 131.539 186.23 131.549 186.16L119.875 191.451V191.577L128.057 205.539L139.732 200.248L131.549 186.559Z" stroke="#3D3D40" stroke-linecap="round" stroke-linejoin="round"/>
<path d="M128.041 205.811L123.708 210.346L119.375 214.902L131.07 209.611L135.403 205.076L139.715 200.52L128.041 205.811Z" fill="#D1D1D4"/>
<path d="M128.041 205.811L123.708 210.346L119.375 214.902L131.07 209.611L135.403 205.076L139.715 200.52L128.041 205.811Z" stroke="#3D3D40" stroke-linecap="round" stroke-linejoin="round"/>
<path d="M108.832 131.821C108.82 131.772 108.82 131.722 108.832 131.674L104.625 116.053L92.9297 121.344L97.1366 136.965L108.832 131.674C108.783 131.683 108.733 131.683 108.685 131.674" fill="#E8E8EB"/>
<path d="M108.832 131.821C108.82 131.772 108.82 131.722 108.832 131.674L104.625 116.053L92.9297 121.344L97.1366 136.965L108.832 131.674C108.841 131.722 108.841 131.772 108.832 131.821V131.821Z" stroke="#3D3D40" stroke-linecap="round" stroke-linejoin="round"/>
<path d="M98.2971 115.759L92.0077 115.549L80.3125 120.84L86.6229 121.05L92.9333 121.281L104.607 115.99L98.2971 115.759Z" fill="white"/>
<path d="M98.2971 115.759L92.0077 115.549L80.3125 120.84L86.6229 121.05L92.9333 121.281L104.607 115.99L98.2971 115.759Z" stroke="#3D3D40" stroke-linecap="round" stroke-linejoin="round"/>
<path d="M122.337 184.625L134.011 179.355L131.508 186.158L119.812 191.449L122.337 184.625Z" fill="#D1D1D4"/>
<path d="M122.337 184.625L134.011 179.355L131.508 186.158L119.812 191.449L122.337 184.625Z" stroke="#3D3D40" stroke-linecap="round" stroke-linejoin="round"/>
<path d="M122.546 184.414L134.242 179.123C134.14 179.171 134.058 179.253 134.01 179.354L122.336 184.645C122.352 184.594 122.38 184.547 122.416 184.507C122.452 184.467 122.497 184.435 122.546 184.414" fill="white"/>
<path d="M122.546 184.414L134.242 179.123C134.14 179.171 134.058 179.253 134.01 179.354L122.336 184.645C122.352 184.594 122.38 184.547 122.416 184.507C122.452 184.467 122.497 184.435 122.546 184.414V184.414Z" stroke="#3D3D40" stroke-linecap="round" stroke-linejoin="round"/>
<path d="M122.546 184.414L134.241 179.123L134.073 179.249L122.398 184.54C122.398 184.54 122.398 184.54 122.546 184.414Z" fill="white"/>
<path d="M122.546 184.414L134.241 179.123L134.073 179.249L122.398 184.54C122.398 184.54 122.398 184.54 122.546 184.414Z" stroke="#3D3D40" stroke-linecap="round" stroke-linejoin="round"/>
<path d="M122.396 184.541L134.07 179.25L122.375 184.52" fill="white"/>
<path d="M122.396 184.541L134.07 179.25L122.375 184.52" stroke="#3D3D40" stroke-linecap="round" stroke-linejoin="round"/>
<path d="M122.359 184.582L134.055 179.312L122.359 184.603" fill="white"/>
<path d="M122.359 184.582L134.055 179.312L122.359 184.603" stroke="#3D3D40" stroke-linecap="round" stroke-linejoin="round"/>
<path d="M122.336 184.624L134.01 179.333V179.354L122.336 184.645V184.624Z" fill="white"/>
<path d="M122.336 184.624L134.01 179.333V179.354L122.336 184.645V184.624Z" stroke="#3D3D40" stroke-linecap="round" stroke-linejoin="round"/>
<path d="M122.546 184.414L134.242 179.123C134.14 179.171 134.058 179.253 134.01 179.354L122.336 184.645C122.352 184.594 122.38 184.547 122.416 184.507C122.452 184.467 122.497 184.435 122.546 184.414V184.414Z" stroke="#3D3D40" stroke-linecap="round" stroke-linejoin="round"/>
<path d="M122.546 184.414L134.242 179.123C134.14 179.171 134.058 179.253 134.01 179.354L122.336 184.645C122.352 184.594 122.38 184.547 122.416 184.507C122.452 184.467 122.497 184.435 122.546 184.414V184.414Z" stroke="#3D3D40" stroke-linecap="round" stroke-linejoin="round"/>
<path d="M97.2891 137.217L108.984 131.926L115.589 135.012L103.915 140.282L97.2891 137.217Z" fill="#E8E8EB"/>
<path d="M97.2891 137.217L108.984 131.926L115.589 135.012L103.915 140.282L97.2891 137.217Z" stroke="#3D3D40" stroke-linecap="round" stroke-linejoin="round"/>
<path d="M118.805 156.049L130.479 150.758L133.403 157.77L121.728 163.061L118.805 156.049Z" fill="#E8E8EB"/>
<path d="M118.805 156.049L130.479 150.758L133.403 157.77L121.728 163.061L118.805 156.049Z" stroke="#3D3D40" stroke-linecap="round" stroke-linejoin="round"/>
<path d="M148.676 169.088L148.487 162.453L136.812 167.744L136.981 174.379L137.17 181.035L148.865 175.744L148.676 169.088Z" fill="#E8E8EB"/>
<path d="M148.676 169.088L148.487 162.453L136.812 167.744L136.981 174.379L137.17 181.035L148.865 175.744L148.676 169.088Z" stroke="#3D3D40" stroke-linecap="round" stroke-linejoin="round"/>
<path d="M133.716 158.066C133.654 158.077 133.59 158.077 133.527 158.066V158.066C133.48 158.019 133.444 157.961 133.422 157.898L121.727 163.189L121.832 163.336H121.958L136.682 167.725L148.356 162.434L133.716 158.066Z" fill="#E8E8EB"/>
<path d="M133.716 158.066C133.654 158.077 133.59 158.077 133.527 158.066V158.066C133.48 158.019 133.444 157.961 133.422 157.898L121.727 163.189L121.832 163.336H121.958L136.682 167.725L148.356 162.434L133.716 158.066Z" stroke="#3D3D40" stroke-linecap="round" stroke-linejoin="round"/>
<path d="M133.296 132.094L128.711 127.223L117.016 132.514L121.601 137.385L126.208 142.235L137.903 136.965L133.296 132.094Z" fill="#E8E8EB"/>
<path d="M133.296 132.094L128.711 127.223L117.016 132.514L121.601 137.385L126.208 142.235L137.903 136.965L133.296 132.094Z" stroke="#3D3D40" stroke-linecap="round" stroke-linejoin="round"/>
<path d="M130.604 150.381L138.008 136.965L126.313 142.256L118.93 155.651V155.756L130.625 150.465C130.606 150.404 130.606 150.338 130.625 150.276V150.276C130.613 150.214 130.613 150.15 130.625 150.087" fill="#E8E8EB"/>
<path d="M130.604 150.381L138.008 136.965L126.313 142.256L118.93 155.651V155.756L130.625 150.465C130.606 150.404 130.606 150.338 130.625 150.276V150.276C130.622 150.312 130.615 150.347 130.604 150.381V150.381Z" stroke="#3D3D40" stroke-linecap="round" stroke-linejoin="round"/>
<path d="M103.468 188.973C105.403 186.885 106.904 184.435 107.886 181.765C108.868 179.095 109.311 176.257 109.19 173.415C109.014 167.451 106.665 161.755 102.585 157.395C98.7001 153.14 93.2843 150.596 87.5238 150.32H87.1452C84.4698 150.258 81.8117 150.763 79.3461 151.802C76.8806 152.84 74.6637 154.389 72.8417 156.346C70.9075 158.438 69.4064 160.892 68.4245 163.566C67.4427 166.239 66.9995 169.08 67.1203 171.925C67.2818 177.886 69.6324 183.579 73.7251 187.924C75.6457 190.034 77.9647 191.745 80.5491 192.96C83.1335 194.174 85.9326 194.867 88.7859 194.999H89.1435C91.8227 195.052 94.483 194.541 96.9511 193.499C99.4192 192.457 101.64 190.908 103.468 188.952V188.973ZM119.833 191.43C119.78 191.558 119.78 191.701 119.833 191.829L128.015 205.791L123.682 210.347L119.349 214.882L106.161 206.211L99.3032 208.815C99.2398 208.835 99.184 208.874 99.1428 208.926C99.1016 208.979 99.0769 209.042 99.0719 209.108L95.8325 224.457L89.5221 224.247L83.2117 224.016L79.0048 208.395C78.9912 208.328 78.9609 208.266 78.9167 208.215C78.8726 208.164 78.816 208.124 78.7524 208.101L72.1265 205.014L59.0219 212.783L54.5626 207.996L49.956 203.146L57.3602 189.729C57.3916 189.667 57.408 189.599 57.408 189.53C57.408 189.46 57.3916 189.392 57.3602 189.33L54.4364 182.318C54.411 182.253 54.3713 182.195 54.3204 182.148C54.2694 182.1 54.2084 182.065 54.1419 182.045L39.4177 177.656L39.2284 171.001L39.0391 164.345L53.595 161.007C53.6609 160.985 53.7212 160.949 53.772 160.902C53.8228 160.855 53.8629 160.798 53.8895 160.734L56.3926 153.952C56.4243 153.887 56.4408 153.815 56.4408 153.742C56.4408 153.669 56.4243 153.598 56.3926 153.532L48.2312 139.57L52.5433 135.035L56.8764 130.478L70.0862 139.15L76.9434 136.546C76.9989 136.519 77.0482 136.481 77.0881 136.434C77.1279 136.387 77.1575 136.332 77.1748 136.273L80.3931 120.904L86.7035 121.135L93.0139 121.345L97.2208 136.966C97.2376 137.034 97.2689 137.097 97.3125 137.151C97.356 137.206 97.4109 137.25 97.4732 137.281L104.099 140.368L117.225 132.599L121.81 137.449L126.396 142.32L119.013 155.716C118.978 155.776 118.959 155.845 118.959 155.915C118.959 155.985 118.978 156.054 119.013 156.115L121.936 163.148C121.995 163.275 122.1 163.373 122.231 163.421L136.955 167.809L136.913 174.402L137.123 181.037L122.546 184.396C122.485 184.414 122.428 184.447 122.38 184.49C122.333 184.534 122.296 184.588 122.273 184.648L119.833 191.43Z" fill="white"/>
<path d="M103.468 188.973C105.403 186.885 106.904 184.435 107.886 181.765C108.868 179.095 109.311 176.257 109.19 173.415C109.014 167.451 106.665 161.755 102.585 157.395C98.7001 153.14 93.2843 150.596 87.5238 150.32H87.1452C84.4698 150.258 81.8117 150.763 79.3461 151.802C76.8806 152.84 74.6637 154.389 72.8417 156.346C70.9075 158.438 69.4064 160.892 68.4245 163.566C67.4427 166.239 66.9995 169.08 67.1203 171.925C67.2818 177.886 69.6324 183.579 73.7251 187.924C75.6457 190.034 77.9647 191.745 80.5491 192.96C83.1335 194.174 85.9326 194.867 88.7859 194.999H89.1435C91.8227 195.052 94.483 194.541 96.9511 193.499C99.4192 192.457 101.64 190.908 103.468 188.952V188.973ZM119.833 191.43C119.78 191.558 119.78 191.701 119.833 191.829L128.015 205.791L123.682 210.347L119.349 214.882L106.161 206.211L99.3032 208.815C99.2398 208.835 99.184 208.874 99.1428 208.926C99.1016 208.979 99.0769 209.042 99.0719 209.108L95.8325 224.457L89.5221 224.247L83.2117 224.016L79.0048 208.395C78.9912 208.328 78.9609 208.266 78.9167 208.215C78.8726 208.164 78.816 208.124 78.7524 208.101L72.1265 205.014L59.0219 212.783L54.5626 207.996L49.956 203.146L57.3602 189.729C57.3916 189.667 57.408 189.599 57.408 189.53C57.408 189.46 57.3916 189.392 57.3602 189.33L54.4364 182.318C54.411 182.253 54.3713 182.195 54.3204 182.148C54.2694 182.1 54.2084 182.065 54.1419 182.045L39.4177 177.656L39.2284 171.001L39.0391 164.345L53.595 161.007C53.6609 160.985 53.7212 160.949 53.772 160.902C53.8228 160.855 53.8629 160.798 53.8895 160.734L56.3926 153.952C56.4243 153.887 56.4408 153.815 56.4408 153.742C56.4408 153.669 56.4243 153.598 56.3926 153.532L48.2312 139.57L52.5433 135.035L56.8764 130.478L70.0862 139.15L76.9434 136.546C76.9989 136.519 77.0482 136.481 77.0881 136.434C77.1279 136.387 77.1575 136.332 77.1748 136.273L80.3931 120.904L86.7035 121.135L93.0139 121.345L97.2208 136.966C97.2376 137.034 97.2689 137.097 97.3125 137.151C97.356 137.206 97.4109 137.25 97.4732 137.281L104.099 140.368L117.225 132.599L121.81 137.449L126.396 142.32L119.013 155.716C118.978 155.776 118.959 155.845 118.959 155.915C118.959 155.985 118.978 156.054 119.013 156.115L121.936 163.148C121.995 163.275 122.1 163.373 122.231 163.421L136.955 167.809L136.913 174.402L137.123 181.037L122.546 184.396C122.485 184.414 122.428 184.447 122.38 184.49C122.333 184.534 122.296 184.588 122.273 184.648L119.833 191.43Z" stroke="#3D3D40" stroke-linecap="round" stroke-linejoin="round"/>
<path d="M120.68 37.4863L132.69 42.0005L145.374 49.916L133.364 45.4018L120.68 37.4863Z" fill="#E8E8EB"/>
<path d="M120.68 37.4863L132.69 42.0005L145.374 49.916L133.364 45.4018L120.68 37.4863Z" stroke="#3D3D40" stroke-linecap="round" stroke-linejoin="round"/>
<path d="M145.331 49.936L133.32 45.4219L145.331 49.915" fill="white"/>
<path d="M145.331 49.936L133.32 45.4219L145.331 49.915V49.936Z" stroke="#3D3D40" stroke-linecap="round" stroke-linejoin="round"/>
<path d="M133.359 45.4004L145.37 49.9145L133.359 45.4004Z" fill="white"/>
<path d="M133.359 45.4004L145.37 49.9145L133.359 45.4004Z" stroke="#3D3D40" stroke-linecap="round" stroke-linejoin="round"/>
<path d="M133.383 45.4199L145.331 49.9341L133.32 45.4199" fill="white"/>
<path d="M133.383 45.4199L145.331 49.9341L133.32 45.4199" stroke="#3D3D40" stroke-linecap="round" stroke-linejoin="round"/>
<path d="M145.331 49.936L133.32 45.4219L145.331 49.915V49.936Z" stroke="#3D3D40" stroke-linecap="round" stroke-linejoin="round"/>
<path d="M145.331 49.936L133.32 45.4219L145.331 49.915V49.936Z" stroke="#3D3D40" stroke-linecap="round" stroke-linejoin="round"/>
<path d="M131.402 111.602L143.413 116.116L130.245 124.703L118.234 120.189L131.402 111.602Z" fill="#D1D1D4"/>
<path d="M131.402 111.602L143.413 116.116L130.245 124.703L118.234 120.189L131.402 111.602Z" stroke="#3D3D40" stroke-linecap="round" stroke-linejoin="round"/>
<path d="M131.743 111.559L143.754 116.073C143.701 116.047 143.644 116.034 143.585 116.034C143.527 116.034 143.469 116.047 143.417 116.073L131.406 111.58C131.457 111.551 131.515 111.535 131.574 111.535C131.634 111.535 131.692 111.551 131.743 111.58" fill="white"/>
<path d="M131.743 111.561L143.754 116.075C143.701 116.049 143.644 116.035 143.585 116.035C143.527 116.035 143.469 116.049 143.417 116.075L131.406 111.582C131.456 111.549 131.513 111.53 131.572 111.526C131.631 111.522 131.69 111.534 131.743 111.561V111.561Z" stroke="#3D3D40" stroke-linecap="round" stroke-linejoin="round"/>
<path d="M131.741 111.56L143.752 116.074H143.604L131.594 111.56H131.741Z" fill="white"/>
<path d="M131.741 111.56L143.752 116.074H143.604L131.594 111.56H131.741Z" stroke="#3D3D40" stroke-linecap="round" stroke-linejoin="round"/>
<path d="M131.594 111.539L143.604 116.053L131.594 111.539Z" fill="white"/>
<path d="M131.594 111.539L143.604 116.053L131.594 111.539Z" stroke="#3D3D40" stroke-linecap="round" stroke-linejoin="round"/>
<path d="M131.547 111.56L143.558 116.074L131.547 111.56Z" fill="white"/>
<path d="M131.547 111.56L143.558 116.074L131.547 111.56Z" stroke="#3D3D40" stroke-linecap="round" stroke-linejoin="round"/>
<path d="M131.508 111.56L143.519 116.074L131.508 111.56Z" fill="white"/>
<path d="M131.508 111.56L143.519 116.074L131.508 111.56Z" stroke="#3D3D40" stroke-linecap="round" stroke-linejoin="round"/>
<path d="M131.469 111.58L143.479 116.094L131.469 111.58Z" fill="white"/>
<path d="M131.469 111.58L143.479 116.094L131.469 111.58Z" stroke="#3D3D40" stroke-linecap="round" stroke-linejoin="round"/>
<path d="M131.445 111.601L143.456 116.115L131.445 111.622" fill="white"/>
<path d="M131.445 111.601L143.456 116.115L131.445 111.622" stroke="#3D3D40" stroke-linecap="round" stroke-linejoin="round"/>
<path d="M131.743 111.561L143.754 116.075C143.701 116.049 143.644 116.035 143.585 116.035C143.527 116.035 143.469 116.049 143.417 116.075L131.406 111.582C131.456 111.549 131.513 111.53 131.572 111.526C131.631 111.522 131.69 111.534 131.743 111.561V111.561Z" stroke="#3D3D40" stroke-linecap="round" stroke-linejoin="round"/>
<path d="M131.743 111.561L143.754 116.075C143.701 116.049 143.644 116.035 143.585 116.035C143.527 116.035 143.469 116.049 143.417 116.075L131.406 111.582C131.456 111.549 131.513 111.53 131.572 111.526C131.631 111.522 131.69 111.534 131.743 111.561V111.561Z" stroke="#3D3D40" stroke-linecap="round" stroke-linejoin="round"/>
<path d="M160.455 41.5585L172.466 46.0517L169.269 30.6196L157.258 26.1055L160.455 41.5585Z" fill="white"/>
<path d="M157.258 26.1055L169.269 30.6196L172.466 46.0517L160.455 41.5585L157.258 26.1055Z" stroke="#3D3D40" stroke-linecap="round" stroke-linejoin="round"/>
<path d="M153.427 103.77C152.964 103.602 152.523 103.413 152.081 103.203L151.744 103.035L151.155 102.72L150.756 102.51L150.146 102.153L149.809 101.943C149.335 101.64 148.879 101.311 148.442 100.956L148.211 100.788C147.811 100.473 147.432 100.137 147.075 99.8016L146.381 99.1297C146.292 99.0486 146.215 98.9569 146.149 98.8567L145.729 98.4158L144.992 97.513L144.824 97.303C144.551 96.9461 144.298 96.5682 144.046 96.1902C143.982 96.1113 143.926 96.027 143.877 95.9383C143.667 95.6024 143.478 95.2664 143.289 94.9305L143.225 94.6155C143.015 94.1956 142.784 93.7547 142.594 93.3348V93.0828C142.384 92.6209 142.195 92.159 142.026 91.6761C141.837 91.0882 141.648 90.5003 141.501 89.9124V89.7025L141.311 88.8626V88.5897L141.122 87.4769C141.122 86.973 140.996 86.4691 140.954 85.9652C140.964 85.8745 140.964 85.7829 140.954 85.6922C140.954 85.1883 140.954 84.6634 140.954 84.1385V83.3617C140.954 82.8018 140.996 82.2349 141.08 81.661C141.09 81.5703 141.09 81.4787 141.08 81.3881C141.08 80.8632 141.227 80.3173 141.332 79.7714V79.4774C141.437 78.9315 141.564 78.3856 141.69 77.8607C141.69 77.8607 141.69 77.6928 141.69 77.6088C141.844 77.0629 142.012 76.517 142.195 75.9711C142.363 75.4672 142.573 74.9633 142.784 74.4594L142.91 74.1655L143.604 72.7377C143.682 72.6163 143.752 72.4901 143.814 72.3598C143.941 72.1498 144.067 71.9399 144.172 71.7299L144.445 71.31L144.824 70.7011L145.055 70.3652C145.392 69.8613 145.771 69.3574 146.149 68.8745L146.36 68.6225L147.432 67.4047L147.622 67.2158C147.958 66.8588 148.316 66.5229 148.673 66.187L148.926 65.977L150.062 65.0112L150.293 64.8432L151.345 64.0874L151.597 63.9194C151.997 63.6675 152.418 63.3945 152.838 63.1636L153.091 63.0166C153.511 62.7926 153.932 62.5827 154.353 62.3867H154.5L155.993 61.7778H156.246C156.811 61.5713 157.386 61.396 157.971 61.2529H158.265L159.064 61.0849H159.401L160.537 60.917C161.168 60.917 161.82 60.791 162.451 60.77C164.338 60.7233 166.221 60.9424 168.046 61.4209C168.652 61.5781 169.249 61.7673 169.834 61.9878V61.9878L157.823 57.4736C155.464 56.5983 152.957 56.1848 150.44 56.2559C149.809 56.2559 149.157 56.2559 148.526 56.4238L147.39 56.5918H147.054L146.254 56.7598H146.086H145.96C145.376 56.9029 144.8 57.0781 144.235 57.2847H144.13C144.081 57.2963 144.031 57.2963 143.983 57.2847C143.478 57.4736 142.973 57.6836 142.489 57.9146H142.384L141.122 58.5444H140.954L139.713 59.3003H139.607L139.46 59.4263L138.408 60.1611H138.261L137.125 61.1269H137.02L136.873 61.2739C136.515 61.5888 136.158 61.9458 135.821 62.3027H135.716L134.643 63.5205L134.517 63.6675C134.526 63.7019 134.526 63.738 134.517 63.7724C134.138 64.2763 133.76 64.7592 133.423 65.2632V65.3891C133.362 65.4578 133.312 65.5357 133.276 65.6201L132.897 66.208L132.624 66.6279C132.519 66.8378 132.393 67.0478 132.266 67.2578C132.14 67.4677 132.161 67.4467 132.119 67.5517L130.605 69.4204L130.478 69.7143C130.268 70.2182 130.058 70.7221 129.889 71.226C129.693 71.7719 129.525 72.3178 129.385 72.8637C129.385 72.8637 129.385 73.0317 129.385 73.1157C129.258 73.6406 129.132 74.1864 129.027 74.7323V75.0263C128.929 75.5722 128.845 76.1181 128.775 76.664C128.785 76.7476 128.785 76.8323 128.775 76.9159C128.775 77.4898 128.733 78.0567 128.648 78.6166V79.4145C128.648 79.9184 128.648 80.4432 128.648 80.9472C128.659 81.0378 128.659 81.1294 128.648 81.2201C128.648 81.724 128.754 82.2279 128.817 82.7318L129.006 83.8446V84.1175L129.195 84.9574C129.195 84.9574 129.195 84.9574 129.195 85.0834C129.343 85.6713 129.532 86.2591 129.721 86.847C129.889 87.3299 130.079 87.7919 130.289 88.2538V88.4217C130.478 88.8626 130.71 89.2826 130.92 89.7025C130.947 89.7696 130.982 89.8331 131.025 89.8914L131.614 90.8783C131.618 90.9342 131.618 90.9903 131.614 91.0462V91.0462C131.867 91.4242 132.119 91.8021 132.393 92.159L132.519 92.327L133.255 93.2088L133.402 93.3768L133.676 93.6707L133.907 93.9227L134.538 94.5316C134.896 94.8675 135.274 95.2034 135.674 95.5184H135.8C136.237 95.8727 136.693 96.2022 137.167 96.5052L137.441 96.6732L138.051 97.0301L138.451 97.261L139.04 97.555H139.229H139.397C139.828 97.769 140.27 97.9583 140.722 98.1219L153.427 103.77Z" fill="#D1D1D4"/>
<path d="M153.427 103.77C152.964 103.602 152.523 103.413 152.081 103.203L151.744 103.035L151.155 102.72L150.756 102.51L150.146 102.153L149.809 101.943C149.335 101.64 148.879 101.311 148.442 100.956L148.211 100.788C147.811 100.473 147.432 100.137 147.075 99.8016L146.381 99.1297C146.292 99.0486 146.215 98.9569 146.149 98.8567L145.729 98.4158L144.992 97.513L144.824 97.303C144.551 96.9461 144.298 96.5682 144.046 96.1902C143.982 96.1113 143.926 96.027 143.877 95.9383C143.667 95.6024 143.478 95.2664 143.289 94.9305L143.225 94.6155C143.015 94.1956 142.784 93.7547 142.594 93.3348V93.0828C142.384 92.6209 142.195 92.159 142.026 91.6761C141.837 91.0882 141.648 90.5003 141.501 89.9124V89.7025L141.311 88.8626V88.5897L141.122 87.4769C141.122 86.973 140.996 86.4691 140.954 85.9652C140.964 85.8745 140.964 85.7829 140.954 85.6922C140.954 85.1883 140.954 84.6634 140.954 84.1385V83.3617C140.954 82.8018 140.996 82.2349 141.08 81.661C141.09 81.5703 141.09 81.4787 141.08 81.3881C141.08 80.8632 141.227 80.3173 141.332 79.7714V79.4774C141.437 78.9315 141.564 78.3856 141.69 77.8607C141.69 77.8607 141.69 77.6928 141.69 77.6088C141.844 77.0629 142.012 76.517 142.195 75.9711C142.363 75.4672 142.573 74.9633 142.784 74.4594L142.91 74.1655L143.604 72.7377C143.682 72.6163 143.752 72.4901 143.814 72.3598C143.941 72.1498 144.067 71.9399 144.172 71.7299L144.445 71.31L144.824 70.7011L145.055 70.3652C145.392 69.8613 145.771 69.3574 146.149 68.8745L146.36 68.6225L147.432 67.4047L147.622 67.2158C147.958 66.8588 148.316 66.5229 148.673 66.187L148.926 65.977L150.062 65.0112L150.293 64.8432L151.345 64.0874L151.597 63.9194C151.997 63.6675 152.418 63.3945 152.838 63.1636L153.091 63.0166C153.511 62.7926 153.932 62.5827 154.353 62.3867H154.5L155.993 61.7778H156.246C156.811 61.5713 157.386 61.396 157.971 61.2529H158.265L159.064 61.0849H159.401L160.537 60.917C161.168 60.917 161.82 60.791 162.451 60.77C164.338 60.7233 166.221 60.9424 168.046 61.4209C168.652 61.5781 169.249 61.7673 169.834 61.9878V61.9878L157.823 57.4736C155.464 56.5983 152.957 56.1848 150.44 56.2559C149.809 56.2559 149.157 56.2559 148.526 56.4238L147.39 56.5918H147.054L146.254 56.7598H146.086H145.96C145.376 56.9029 144.8 57.0781 144.235 57.2847H144.13C144.081 57.2963 144.031 57.2963 143.983 57.2847C143.478 57.4736 142.973 57.6836 142.489 57.9146H142.384L141.122 58.5444H140.954L139.713 59.3003H139.607L139.46 59.4263L138.408 60.1611H138.261L137.125 61.1269H137.02L136.873 61.2739C136.515 61.5888 136.158 61.9458 135.821 62.3027H135.716L134.643 63.5205L134.517 63.6675C134.526 63.7019 134.526 63.738 134.517 63.7724C134.138 64.2763 133.76 64.7592 133.423 65.2632V65.3891C133.362 65.4578 133.312 65.5357 133.276 65.6201L132.897 66.208L132.624 66.6279C132.519 66.8378 132.393 67.0478 132.266 67.2578C132.14 67.4677 132.161 67.4467 132.119 67.5517L130.605 69.4204L130.478 69.7143C130.268 70.2182 130.058 70.7221 129.889 71.226C129.693 71.7719 129.525 72.3178 129.385 72.8637C129.385 72.8637 129.385 73.0317 129.385 73.1157C129.258 73.6406 129.132 74.1864 129.027 74.7323V75.0263C128.929 75.5722 128.845 76.1181 128.775 76.664C128.785 76.7476 128.785 76.8323 128.775 76.9159C128.775 77.4898 128.733 78.0567 128.648 78.6166V79.4145C128.648 79.9184 128.648 80.4432 128.648 80.9472C128.659 81.0378 128.659 81.1294 128.648 81.2201C128.648 81.724 128.754 82.2279 128.817 82.7318L129.006 83.8446V84.1175L129.195 84.9574C129.195 84.9574 129.195 84.9574 129.195 85.0834C129.343 85.6713 129.532 86.2591 129.721 86.847C129.889 87.3299 130.079 87.7919 130.289 88.2538V88.4217C130.478 88.8626 130.71 89.2826 130.92 89.7025C130.947 89.7696 130.982 89.8331 131.025 89.8914L131.614 90.8783C131.618 90.9342 131.618 90.9903 131.614 91.0462V91.0462C131.867 91.4242 132.119 91.8021 132.393 92.159L132.519 92.327L133.255 93.2088L133.402 93.3768L133.676 93.6707L133.907 93.9227L134.538 94.5316C134.896 94.8675 135.274 95.2034 135.674 95.5184H135.8C136.237 95.8727 136.693 96.2022 137.167 96.5052L137.441 96.6732L138.051 97.0301L138.451 97.261L139.04 97.555H139.229H139.397C139.828 97.769 140.27 97.9583 140.722 98.1219L153.427 103.77Z" stroke="#3D3D40" stroke-linecap="round" stroke-linejoin="round"/>
<path d="M170.341 118.573C170.368 118.506 170.403 118.443 170.446 118.384L170.614 118.258L158.604 113.744H158.414L154.312 129.386L166.323 133.9L170.341 118.573Z" fill="#D1D1D4"/>
<path d="M170.341 118.573C170.368 118.506 170.403 118.443 170.446 118.384L170.614 118.258L158.604 113.744H158.414L154.312 129.386L166.323 133.9L170.341 118.573Z" stroke="#3D3D40" stroke-linecap="round" stroke-linejoin="round"/>
<path d="M154.227 129.701L147.938 129.869L141.648 130.016L153.659 134.53L159.949 134.362L166.217 134.215L154.227 129.701Z" fill="#D1D1D4"/>
<path d="M154.227 129.701L147.938 129.869L141.648 130.016L153.659 134.53L159.949 134.362L166.217 134.215L154.227 129.701Z" stroke="#3D3D40" stroke-linecap="round" stroke-linejoin="round"/>
<path d="M193.076 63.8149C193.076 63.8149 193.076 63.6889 193.076 63.6469L201.237 49.7055L189.226 45.1914L181.086 59.0908" stroke="#3D3D40" stroke-linecap="round" stroke-linejoin="round"/>
<path d="M196.987 45.0439L192.675 40.4458L180.664 35.9316L184.976 40.5298L189.267 45.1489L201.278 49.663L196.987 45.0439Z" fill="white"/>
<path d="M196.987 45.0439L192.675 40.4458L180.664 35.9316L184.976 40.5298L189.267 45.1489L201.278 49.663L196.987 45.0439Z" stroke="#3D3D40" stroke-linecap="round" stroke-linejoin="round"/>
<path d="M165.185 110.697L177.196 115.211L170.612 118.256L158.602 113.742L165.185 110.697Z" fill="#D1D1D4"/>
<path d="M165.185 110.697L177.196 115.211L170.612 118.256L158.602 113.742L165.185 110.697Z" stroke="#3D3D40" stroke-linecap="round" stroke-linejoin="round"/>
<path d="M165.503 110.699L177.514 115.213C177.413 115.172 177.299 115.172 177.198 115.213L165.188 110.699C165.29 110.668 165.4 110.668 165.503 110.699" fill="white"/>
<path d="M165.503 110.699L177.514 115.213C177.413 115.172 177.299 115.172 177.198 115.213L165.188 110.699C165.29 110.668 165.4 110.668 165.503 110.699V110.699Z" stroke="#3D3D40" stroke-linecap="round" stroke-linejoin="round"/>
<path d="M165.502 110.698L177.513 115.212H177.323L165.312 110.698H165.502Z" fill="white"/>
<path d="M165.502 110.698L177.513 115.212H177.323L165.312 110.698H165.502Z" stroke="#3D3D40" stroke-linecap="round" stroke-linejoin="round"/>
<path d="M165.312 110.678L177.323 115.192L165.312 110.699" fill="white"/>
<path d="M165.312 110.678L177.323 115.192L165.312 110.699" stroke="#3D3D40" stroke-linecap="round" stroke-linejoin="round"/>
<path d="M165.25 110.699L177.261 115.192L165.25 110.678" fill="white"/>
<path d="M165.25 110.699L177.261 115.192L165.25 110.678" stroke="#3D3D40" stroke-linecap="round" stroke-linejoin="round"/>
<path d="M165.209 110.697L177.219 115.211H177.198L165.188 110.697H165.209Z" fill="white"/>
<path d="M165.209 110.697L177.219 115.211H177.198L165.188 110.697H165.209Z" stroke="#3D3D40" stroke-linecap="round" stroke-linejoin="round"/>
<path d="M165.503 110.699L177.514 115.213C177.413 115.172 177.299 115.172 177.198 115.213L165.188 110.699C165.29 110.668 165.4 110.668 165.503 110.699V110.699Z" stroke="#3D3D40" stroke-linecap="round" stroke-linejoin="round"/>
<path d="M165.503 110.699L177.514 115.213C177.413 115.172 177.299 115.172 177.198 115.213L165.188 110.699C165.29 110.668 165.4 110.668 165.503 110.699V110.699Z" stroke="#3D3D40" stroke-linecap="round" stroke-linejoin="round"/>
<path d="M181.07 59.4902L193.081 64.0044L195.584 70.8491L183.573 66.3559L181.07 59.4902Z" fill="#E8E8EB"/>
<path d="M181.07 59.4902L193.081 64.0044L195.584 70.8491L183.573 66.3559L181.07 59.4902Z" stroke="#3D3D40" stroke-linecap="round" stroke-linejoin="round"/>
<path d="M182.942 88.0039L194.953 92.497L192.05 99.5307L180.039 95.0166L182.942 88.0039Z" fill="#E8E8EB"/>
<path d="M182.942 88.0039L194.953 92.497L192.05 99.5307L180.039 95.0166L182.942 88.0039Z" stroke="#3D3D40" stroke-linecap="round" stroke-linejoin="round"/>
<path d="M194.823 118.298L199.408 113.469L187.398 108.955L182.812 113.784L178.227 118.634L190.237 123.148L194.823 118.298Z" fill="#E8E8EB"/>
<path d="M194.823 118.298L199.408 113.469L187.398 108.955L182.812 113.784L178.227 118.634L190.237 123.148L194.823 118.298Z" stroke="#3D3D40" stroke-linecap="round" stroke-linejoin="round"/>
<path d="M192.07 99.9502C192.058 99.8807 192.058 99.8097 192.07 99.7402C192.062 99.6705 192.062 99.6 192.07 99.5302L180.039 95.0371C180.029 95.0997 180.029 95.1635 180.039 95.2261L187.401 108.978L199.411 113.514L192.07 99.9502Z" fill="#E8E8EB"/>
<path d="M192.07 99.9502C192.058 99.8807 192.058 99.8097 192.07 99.7402C192.062 99.6705 192.062 99.6 192.07 99.5302L180.039 95.0371C180.029 95.0997 180.029 95.1635 180.039 95.2261L187.401 108.978L199.411 113.514L192.07 99.9502Z" stroke="#3D3D40" stroke-linecap="round" stroke-linejoin="round"/>
<path d="M210.153 81.2831L210.364 74.6064L198.353 70.1133L198.142 76.79L197.953 83.4667L209.964 87.9809L210.153 81.2831Z" fill="#E8E8EB"/>
<path d="M210.153 81.2831L210.364 74.6064L198.353 70.1133L198.142 76.79L197.953 83.4667L209.964 87.9809L210.153 81.2831Z" stroke="#3D3D40" stroke-linecap="round" stroke-linejoin="round"/>
<path d="M195.248 92.2431L209.972 88.0439L197.919 83.4668L183.195 87.666H182.984L194.953 92.5161L195.079 92.3481C195.134 92.3318 195.193 92.3318 195.248 92.3481" fill="#E8E8EB"/>
<path d="M195.248 92.2431L209.972 88.0439L197.919 83.4668L183.195 87.666H182.984L194.953 92.5161L195.079 92.3481C195.122 92.2947 195.181 92.2576 195.248 92.2431V92.2431Z" stroke="#3D3D40" stroke-linecap="round" stroke-linejoin="round"/>
<path d="M148.781 100.473C151.632 100.354 154.431 99.6753 157.019 98.4756C159.607 97.2759 161.933 95.5787 163.863 93.4811C167.969 89.1453 170.354 83.4658 170.573 77.5032C170.833 71.7512 168.807 66.1294 164.936 61.8612L164.683 61.6092C162.829 59.6761 160.588 58.1552 158.105 57.1458C155.622 56.1364 152.954 55.6612 150.274 55.7513C147.424 55.8701 144.624 56.5488 142.036 57.7485C139.448 58.9482 137.123 60.6454 135.193 62.743C131.094 67.082 128.716 72.7611 128.504 78.7209C128.249 84.4758 130.283 90.098 134.162 94.3629L134.393 94.6149C136.249 96.5459 138.491 98.0654 140.973 99.0746C143.456 100.084 146.123 100.56 148.802 100.473H148.781ZM158.625 113.742C158.562 113.772 158.506 113.816 158.463 113.871C158.419 113.925 158.388 113.989 158.373 114.057L154.166 129.699L147.856 129.867L141.545 130.014L138.348 114.582L131.659 111.58C131.602 111.544 131.536 111.526 131.47 111.526C131.403 111.526 131.337 111.544 131.28 111.58L118.113 120.146L113.906 115.548L109.699 110.929L117.86 96.9874C117.892 96.9256 117.908 96.8573 117.908 96.788C117.908 96.7187 117.892 96.6503 117.86 96.5885L115.357 89.7438L100.633 85.9855L100.822 79.3088L101.032 72.6321L115.757 68.4329C115.823 68.4193 115.885 68.389 115.937 68.345C115.988 68.3009 116.028 68.2445 116.051 68.181L118.891 61.0213C118.922 60.9595 118.939 60.8912 118.939 60.8218C118.939 60.7525 118.922 60.6842 118.891 60.6224L111.55 47.08L116.135 42.2509L120.7 37.4218L133.321 45.3163C133.379 45.3476 133.444 45.3639 133.51 45.3639C133.576 45.3639 133.641 45.3476 133.699 45.3163L140.304 42.2719C140.425 42.2029 140.516 42.0902 140.557 41.957L144.658 26.3149L150.969 26.168L157.279 26L160.476 41.4531L167.165 44.4555C167.223 44.4867 167.289 44.5031 167.355 44.5031C167.421 44.5031 167.486 44.4867 167.544 44.4555L180.712 35.8681L184.919 40.4872L189.125 45.0854L181.09 59.0897C181.055 59.1503 181.037 59.2191 181.037 59.2891C181.037 59.3592 181.055 59.428 181.09 59.4886L183.593 66.3543L198.318 70.1126L198.128 76.7893L197.918 83.466L183.194 87.6652C183.063 87.7137 182.957 87.8119 182.899 87.9382L180.038 95.0348C179.986 95.1626 179.986 95.3059 180.038 95.4337L187.401 108.976L182.815 113.805L178.23 118.634L165.609 110.719C165.549 110.692 165.485 110.678 165.419 110.678C165.354 110.678 165.29 110.692 165.23 110.719L158.625 113.742Z" fill="white"/>
<path d="M148.781 100.473C151.632 100.354 154.431 99.6753 157.019 98.4756C159.607 97.2759 161.933 95.5787 163.863 93.4811C167.969 89.1453 170.354 83.4658 170.573 77.5032C170.833 71.7512 168.807 66.1294 164.936 61.8612L164.683 61.6092C162.829 59.6761 160.588 58.1552 158.105 57.1458C155.622 56.1364 152.954 55.6612 150.274 55.7513C147.424 55.8701 144.624 56.5488 142.036 57.7485C139.448 58.9482 137.123 60.6454 135.193 62.743C131.094 67.082 128.716 72.7611 128.504 78.7209C128.249 84.4758 130.283 90.098 134.162 94.3629L134.393 94.6149C136.249 96.5459 138.491 98.0654 140.973 99.0746C143.456 100.084 146.123 100.56 148.802 100.473H148.781ZM158.625 113.742C158.562 113.772 158.506 113.816 158.463 113.871C158.419 113.925 158.388 113.989 158.373 114.057L154.166 129.699L147.856 129.867L141.545 130.014L138.348 114.582L131.659 111.58C131.602 111.544 131.536 111.526 131.47 111.526C131.403 111.526 131.337 111.544 131.28 111.58L118.113 120.146L113.906 115.548L109.699 110.929L117.86 96.9874C117.892 96.9256 117.908 96.8573 117.908 96.788C117.908 96.7187 117.892 96.6503 117.86 96.5885L115.357 89.7438L100.633 85.9855L100.822 79.3088L101.032 72.6321L115.757 68.4329C115.823 68.4193 115.885 68.389 115.937 68.345C115.988 68.3009 116.028 68.2445 116.051 68.181L118.891 61.0213C118.922 60.9595 118.939 60.8912 118.939 60.8218C118.939 60.7525 118.922 60.6842 118.891 60.6224L111.55 47.08L116.135 42.2509L120.7 37.4218L133.321 45.3163C133.379 45.3476 133.444 45.3639 133.51 45.3639C133.576 45.3639 133.641 45.3476 133.699 45.3163L140.304 42.2719C140.425 42.2029 140.516 42.0902 140.557 41.957L144.658 26.3149L150.969 26.168L157.279 26L160.476 41.4531L167.165 44.4555C167.223 44.4867 167.289 44.5031 167.355 44.5031C167.421 44.5031 167.486 44.4867 167.544 44.4555L180.712 35.8681L184.919 40.4872L189.125 45.0854L181.09 59.0897C181.055 59.1503 181.037 59.2191 181.037 59.2891C181.037 59.3592 181.055 59.428 181.09 59.4886L183.593 66.3543L198.318 70.1126L198.128 76.7893L197.918 83.466L183.194 87.6652C183.063 87.7137 182.957 87.8119 182.899 87.9382L180.038 95.0348C179.986 95.1626 179.986 95.3059 180.038 95.4337L187.401 108.976L182.815 113.805L178.23 118.634L165.609 110.719C165.549 110.692 165.485 110.678 165.419 110.678C165.354 110.678 165.29 110.692 165.23 110.719L158.625 113.742Z" stroke="#3D3D40" stroke-linecap="round" stroke-linejoin="round"/>
</svg>
