<svg width="49" height="51" viewBox="0 0 49 51" fill="none" xmlns="http://www.w3.org/2000/svg">
  <path d="M43.7769 0.281345C44.0386 0.288544 44.2948 0.358134 44.5236 0.48421C44.7523 0.610286 44.947 0.789126 45.0911 1.00555C45.585 1.51541 45.9418 2.13977 46.1288 2.82145C46.3158 3.50312 46.327 4.22033 46.1613 4.9074C45.9244 5.71972 45.6351 6.51618 45.2952 7.29186C45.099 7.76739 44.957 8.26312 44.872 8.76983C44.815 9.14435 44.8489 9.52693 44.9709 9.8859C45.093 10.2449 45.2997 10.5699 45.5739 10.8341C45.7698 10.9804 46.0058 11.0645 46.251 11.0755C46.5887 11.0742 46.9137 11.2032 47.157 11.4351C47.6556 12.0018 48.0121 12.677 48.1974 13.4057C48.9391 17.1401 45.3748 20.3029 41.7906 21.2883C41.73 21.2809 41.6685 21.2873 41.6107 21.3069C41.5529 21.3265 41.5004 21.3589 41.4571 21.4016C41.3985 21.404 41.3429 21.4281 41.3014 21.4692C41.2599 21.5103 41.2355 21.5652 41.2331 21.6233C41.1236 21.8499 41.3526 22.1997 41.5816 22.3179C41.8105 22.4362 42.1441 22.4411 42.4826 22.5593L43.8416 22.9288C44.0923 23.0464 44.3225 23.2027 44.5236 23.3919C44.5544 23.3932 44.5835 23.4062 44.6049 23.4282C44.6262 23.4503 44.6381 23.4796 44.6381 23.5101C44.8285 23.789 44.913 24.1255 44.8765 24.4601C44.8401 24.7947 44.685 25.1057 44.4389 25.3379C44.0803 25.8004 43.5634 26.1174 42.9854 26.2296C42.2874 26.4244 41.575 26.5645 40.8548 26.6484L39.5157 26.9686L38.8486 27.3233C38.6471 27.411 38.4869 27.5713 38.4006 27.7716C38.3035 28.0056 38.3011 28.2675 38.3937 28.5032C38.4864 28.7389 38.6671 28.9303 38.8984 29.0378C39.1017 29.1294 39.291 29.2488 39.4609 29.3925C39.5543 29.4509 39.6349 29.5273 39.698 29.6171C39.761 29.707 39.8052 29.8084 39.828 29.9154C39.8507 30.0224 39.8515 30.1329 39.8304 30.2402C39.8092 30.3476 39.7665 30.4496 39.7048 30.5404C39.5457 30.819 39.3157 31.0517 39.0378 31.2153C37.6464 32.0844 36.0284 32.5314 34.3833 32.5011C33.9157 32.4918 33.4496 32.4457 32.9895 32.3632C32.4269 32.24 31.8644 32.2302 31.3019 32.107H30.5154C30.4009 32.107 30.4009 32.2203 30.2914 32.2203C30.1959 32.3045 30.1332 32.419 30.1141 32.544C30.095 32.6691 30.1208 32.7968 30.1868 32.9051C30.4158 33.1367 30.5303 33.3682 30.7593 33.5998L30.9883 33.8313C31.0961 34.0154 31.1343 34.2314 31.096 34.4408C31.0577 34.6502 30.9454 34.8393 30.7792 34.9743C30.3213 35.4861 29.6807 35.8022 28.9921 35.8561C28.5441 35.9645 27.9965 35.9547 27.5385 36.0581C26.4717 36.1342 25.4737 36.6078 24.7458 37.3834C24.3849 37.8938 24.0526 38.4234 23.7502 38.9697C23.5431 39.2961 23.3601 39.637 23.2026 39.9895C23.1195 40.1891 22.9603 40.3484 22.7596 40.4329C22.6172 40.5412 22.4412 40.5969 22.2618 40.5906C22.088 40.5895 21.9176 40.5435 21.7674 40.4571C21.6172 40.3707 21.4924 40.2468 21.4056 40.0979C21.3209 40.0142 21.0521 39.152 20.8729 39.1471C20.8032 39.1471 20.7485 39.2752 20.7236 39.6398C20.6399 40.4464 20.5002 41.2464 20.3054 42.0341V42.4922L21.5499 50.7443L20.9874 50.8477L20.4249 50.9512L18.9315 40.9798C18.7622 38.812 18.7622 36.6346 18.9315 34.4668C18.7888 33.7089 18.7022 32.9415 18.6726 32.1711C18.6378 31.9543 18.5979 31.8705 18.5531 31.8705C18.5083 31.8705 18.3092 32.4272 18.2296 32.5061C18.1499 32.5849 18.0056 32.7327 17.8911 32.7327C17.8058 32.7592 17.7165 32.7709 17.6272 32.7672C17.493 32.7738 17.36 32.7396 17.2461 32.6691C17.1322 32.5987 17.0428 32.4953 16.99 32.3731C16.8706 32.1415 16.7561 31.91 16.6416 31.6784L15.9496 30.6438C15.457 30.155 14.8275 29.8238 14.1426 29.693C13.9186 29.693 13.5801 29.5698 13.2416 29.5649C12.8036 29.5096 12.4006 29.2997 12.1066 28.9737L12.012 28.8013C11.919 28.6821 11.8773 28.5314 11.8959 28.382C11.9146 28.2325 11.9921 28.0964 12.1116 28.0032C12.2509 27.8745 12.3642 27.7207 12.4451 27.5499C12.4571 27.4442 12.4284 27.3378 12.3648 27.252C12.3011 27.1662 12.2072 27.1072 12.1016 27.0868H11.5391C11.2006 27.1952 10.7575 27.1903 10.419 27.2987C10.0895 27.3473 9.75651 27.3687 9.42343 27.3627C8.36745 27.3613 7.33788 27.036 6.47643 26.4316C6.24744 26.3134 6.13294 26.0818 6.01845 25.9685C5.96692 25.8477 5.96013 25.7128 5.99929 25.5875C6.03845 25.4622 6.12104 25.3546 6.2325 25.2837C6.347 25.1704 6.45652 25.1753 6.57101 25.062C6.68053 25.062 6.68053 24.9487 6.78507 24.8354C6.83561 24.7714 6.87021 24.6964 6.88604 24.6167C6.90188 24.537 6.8985 24.4547 6.8762 24.3764C6.8539 24.2982 6.8133 24.2263 6.75768 24.1666C6.70206 24.1068 6.63299 24.0608 6.55608 24.0324C6.43166 23.9088 6.27172 23.8262 6.0981 23.7959C5.75959 23.6727 5.53558 23.6678 5.19707 23.5496C4.69984 23.5294 4.20759 23.4432 3.73353 23.2934C3.32759 23.2376 2.95966 23.0273 2.70805 22.7071L2.59854 22.5938C2.46611 22.4191 2.40265 22.2026 2.42006 21.9849C2.43747 21.7672 2.53457 21.5633 2.69312 21.4114C2.81668 21.2716 2.96733 21.1576 3.13616 21.0764C3.47467 20.968 3.69868 20.973 4.03221 20.8646C4.14671 20.7513 4.37072 20.7513 4.59473 20.6429C4.70425 20.6429 4.81874 20.6429 4.81874 20.5345C4.92826 20.4212 4.81874 20.1896 4.69927 20.0714C4.58477 20.0714 4.58477 19.9581 4.47028 19.9532C3.296 19.5853 2.2574 18.883 1.48441 17.934C0.711425 16.9849 0.238376 15.8314 0.124451 14.6177C0.127303 14.1665 0.279424 13.7287 0.55754 13.3713C0.621556 13.2881 0.707385 13.2239 0.805688 13.1857C0.903991 13.1475 1.011 13.1367 1.11508 13.1545C1.2839 13.1279 1.44035 13.0505 1.5631 12.9328C1.7409 12.7546 1.87264 12.5367 1.94717 12.2974C2.0217 12.0581 2.03681 11.8046 1.99121 11.5583C1.87672 11.2085 1.75725 10.9819 1.64275 10.637C1.39762 10.1189 1.20099 9.57965 1.05534 9.02602C0.929384 8.5895 0.921966 8.12782 1.03384 7.68756C1.14571 7.2473 1.37291 6.84402 1.69253 6.51839C1.82246 6.31142 2.01877 6.15356 2.25007 6.07007C2.32289 6.06255 2.39629 6.06255 2.46911 6.07007C2.72607 6.06778 2.9767 6.14893 3.1826 6.3011C3.3885 6.45326 3.53831 6.66803 3.60908 6.91251C3.60908 7.02583 3.72357 7.14406 3.72357 7.25738C3.85228 7.5083 3.93327 7.7805 3.96252 8.06041C4.11884 8.8557 4.52268 9.58266 5.11742 10.1394C5.21375 10.2223 5.33056 10.2784 5.45593 10.302C5.55549 10.302 5.61523 10.2182 5.67496 10.031C5.75206 9.86118 5.87622 9.71641 6.03304 9.61352C6.18987 9.51064 6.37294 9.45383 6.56105 9.4497C6.63852 9.45187 6.71543 9.46345 6.79004 9.48419C7.64108 9.64631 8.40555 10.1041 8.94553 10.775C9.39309 11.351 9.7785 11.9719 10.0955 12.6273C10.21 12.7407 10.3245 12.9722 10.4389 13.0904C10.4992 13.1549 10.5801 13.1967 10.6679 13.2087C10.7831 13.2126 10.8969 13.183 10.9951 13.1234C11.0934 13.0638 11.1717 12.977 11.2205 12.8737C11.335 12.8737 11.33 12.7604 11.33 12.647C11.4395 12.5337 11.4395 12.5337 11.4395 12.4204C11.4893 12.3347 11.5623 12.2644 11.6502 12.2174C11.7381 12.1704 11.8376 12.1486 11.9373 12.1544C12.0271 12.1593 12.1158 12.1759 12.2012 12.2037C12.62 12.3033 12.9859 12.5547 13.2266 12.9082C13.5576 13.3132 13.8635 13.7376 14.1426 14.1792C14.6792 14.9518 14.8949 15.8991 14.7449 16.8248C14.6653 17.081 14.7449 17.2091 14.969 17.214C15.0452 17.2116 15.1206 17.1983 15.193 17.1746C15.3182 17.141 15.4467 17.1212 15.5763 17.1155C15.7953 17.1155 15.9447 17.2238 16.0741 17.5342C16.5833 18.4334 16.7207 19.4929 16.4574 20.4902C16.3316 20.8183 16.2593 21.1642 16.2433 21.5149C16.2292 21.7148 16.2723 21.9146 16.3678 22.0913C16.4047 22.1633 16.459 22.2253 16.5259 22.2717C16.5927 22.3181 16.6701 22.3475 16.7511 22.3573C16.8755 22.3573 16.9851 22.2736 17.0398 22.1011C17.0321 21.9783 17.0712 21.857 17.1493 21.7612C17.1701 21.7196 17.2031 21.6851 17.2439 21.6623C17.2848 21.6395 17.3316 21.6293 17.3783 21.6331C17.503 21.6361 17.6221 21.6853 17.7119 21.7711C17.8264 22.0026 17.9408 22.1159 18.0553 22.3475C18.3226 23.2115 18.524 24.0942 18.6577 24.9881C18.6613 25.5363 18.7213 26.0827 18.8369 26.6188C18.8654 27.2718 18.9503 27.9212 19.0908 28.5599C19.213 29.1641 19.2214 29.7854 19.1157 30.3926C19.1157 30.5059 19.0111 30.7325 19.0111 30.8507C18.6673 28.9837 17.9127 27.2143 16.8009 25.668C15.7638 24.2311 14.5347 22.9401 13.147 21.8302C11.3431 20.5096 9.63322 19.0677 8.02958 17.5145C7.32391 16.8295 6.6747 16.0898 6.08814 15.3025L4.70922 13.2235C4.59473 13.1101 4.48023 12.8786 4.36574 12.7604C4.56938 13.2862 4.84221 13.7831 5.17716 14.2383C5.44074 14.7333 5.74721 15.2048 6.09312 15.6473C6.66559 16.342 7.23807 17.0416 7.92006 17.7411L11.335 20.8843C12.1315 21.5839 12.928 22.1701 13.7245 22.8549C16.3692 25.2469 18.1844 28.4035 18.9116 31.8755C19.0032 32.1331 19.0455 32.4055 19.036 32.6785C19.036 32.5603 19.26 32.5652 19.3745 32.5701C19.5837 32.1451 19.691 31.6782 19.6881 31.2055C19.6881 30.2891 19.7728 29.491 19.7628 28.688C19.8703 27.3294 20.1531 25.99 20.6041 24.7024C20.7484 24.4128 20.9345 24.1456 21.1567 23.9092C21.2153 23.847 21.2951 23.8084 21.3807 23.8008C21.546 23.7833 21.7127 23.8195 21.8555 23.9039C21.9982 23.9883 22.1094 24.1164 22.1722 24.2688C22.3663 24.7024 22.5555 24.8847 22.7397 24.8847C22.9239 24.8847 23.0433 24.7713 23.1877 24.5152C23.2824 24.3847 23.35 24.2371 23.3868 24.0806C23.4235 23.9242 23.4286 23.7621 23.4018 23.6038C23.3354 23.0593 23.2137 22.5228 23.0384 22.0026C22.8112 21.2467 22.7382 20.4537 22.8237 19.6697C22.9092 18.8856 23.1513 18.1262 23.5362 17.4357C23.5874 17.2703 23.69 17.1251 23.8295 17.0207C23.9689 16.9164 24.138 16.8581 24.3127 16.8543C24.5378 16.872 24.7591 16.9218 24.9698 17.0021C25.0662 17.0598 25.1759 17.0921 25.2884 17.0957C25.5622 17.0957 25.7265 16.8691 25.6369 16.4454C25.4614 15.7608 25.4459 15.0455 25.5917 14.354C25.7374 13.6625 26.0406 13.013 26.4782 12.4549C26.9186 11.7907 27.3955 11.1509 27.9069 10.5385C28.2894 10.0328 28.8452 9.68246 29.47 9.55316C29.5126 9.50977 29.5652 9.47724 29.6233 9.45837C29.6814 9.43949 29.7432 9.43483 29.8035 9.44477C29.8614 9.43751 29.9199 9.43751 29.9777 9.44477C30.1939 9.46778 30.3957 9.56264 30.5504 9.71387C30.705 9.8651 30.8032 10.0637 30.829 10.2774C30.829 10.3907 30.9435 10.5089 30.9435 10.6222C30.9435 10.7355 31.063 10.8538 31.1775 10.972C31.2395 11.0309 31.3139 11.0756 31.3954 11.1029C31.4768 11.1302 31.5633 11.1395 31.6488 11.1301C31.7342 11.1207 31.8165 11.0928 31.8899 11.0485C31.9633 11.0042 32.026 10.9444 32.0735 10.8735C32.2575 10.6732 32.4057 10.4432 32.5116 10.1936C33.0292 9.20015 33.6164 8.24371 34.2688 7.33127C35.0899 6.34806 36.233 5.68047 37.4996 5.4444C37.6377 5.40032 37.7826 5.38032 37.9277 5.38528C38.2053 5.38766 38.4756 5.47384 38.7024 5.6323C38.9293 5.79076 39.1018 6.01395 39.1971 6.27206C39.3215 6.51839 39.4111 6.63663 39.5356 6.63663C39.66 6.63663 39.7795 6.5578 39.9836 6.40015C40.9104 5.61595 41.5304 4.53521 41.7359 3.34567C41.752 2.91989 41.8222 2.49781 41.9449 2.0894C42.0545 1.86278 42.0495 1.74946 42.159 1.52777C42.1713 1.34161 42.23 1.16136 42.3299 1.00316C42.4298 0.844965 42.5678 0.713755 42.7315 0.621279C43.0325 0.396906 43.4 0.277385 43.7769 0.281345Z" fill="white" stroke="#3D3D40" strokeWidth="0.5" strokeLinecap="round" strokeLinejoin="round"/>
</svg>