<svg width="18" height="17" viewBox="0 0 18 17" fill="none" xmlns="http://www.w3.org/2000/svg">
<path d="M0.749999 9.31304L9.525 16.9261C9.6 17 9.675 17 9.75 17C9.825 17 9.975 16.9261 10.05 16.8522C10.125 16.7783 10.125 16.6304 10.125 16.5565C10.125 16.4826 10.05 16.4087 9.975 16.3348L1.35 8.86956L17.625 8.86957C17.85 8.86957 18 8.72174 18 8.5C18 8.27826 17.85 8.13044 17.625 8.13044L1.35 8.13043L10.05 0.665218C10.2 0.517392 10.2 0.295654 10.05 0.147826C9.975 0.0739148 9.825 1.19267e-06 9.75 1.18611e-06C9.675 1.17955e-06 9.6 1.173e-06 9.525 0.0739147L0.749999 7.68696C0.749999 7.68696 0.374999 7.98261 0.374999 8.5C0.374999 9.01739 0.749999 9.31304 0.749999 9.31304Z" fill="#1A1A1A"/>
</svg>
